<svg width="1312" height="936" xmlns="http://www.w3.org/2000/svg" xmlns:xlink="http://www.w3.org/1999/xlink" overflow="hidden"><g transform="translate(-161 -391)"><rect x="850" y="1110" width="222" height="72" stroke="#9370DB" stroke-width="2" stroke-miterlimit="8" fill="#ECECFF"/><text fill="#333333" font-family="Trebuchet MS,Trebuchet MS_MSFontService,sans-serif" font-weight="400" font-size="19" transform="translate(886.333 1153)">Scoring &amp; Ranking</text><rect x="860" y="392" width="203" height="73" stroke="#9370DB" stroke-width="2" stroke-miterlimit="8" fill="#ECECFF"/><text fill="#333333" font-family="Trebuchet MS,Trebuchet MS_MSFontService,sans-serif" font-weight="400" font-size="19" transform="translate(902.77 435)">Protein (.</text><text fill="#333333" font-family="Trebuchet MS,Trebuchet MS_MSFontService,sans-serif" font-weight="400" font-size="19" transform="translate(981.897 435)">pdb</text><text fill="#333333" font-family="Trebuchet MS,Trebuchet MS_MSFontService,sans-serif" font-weight="400" font-size="19" transform="translate(1012.9 435)">)</text><rect x="831" y="1253" width="260" height="72" stroke="#9370DB" stroke-width="2" stroke-miterlimit="8" fill="#ECECFF"/><text fill="#333333" font-family="Trebuchet MS,Trebuchet MS_MSFontService,sans-serif" font-weight="400" font-size="19" transform="translate(871.337 1296)">Visualization (</text><text fill="#333333" font-family="Trebuchet MS,Trebuchet MS_MSFontService,sans-serif" font-weight="400" font-size="19" transform="translate(989.663 1296)">PyMOL</text><text fill="#333333" font-family="Trebuchet MS,Trebuchet MS_MSFontService,sans-serif" font-weight="400" font-size="19" transform="translate(1044.33 1296)">)</text><rect x="819" y="966" width="284" height="73" stroke="#9370DB" stroke-width="2" stroke-miterlimit="8" fill="#ECECFF"/><text fill="#333333" font-family="Trebuchet MS,Trebuchet MS_MSFontService,sans-serif" font-weight="400" font-size="19" transform="translate(852.596 1009)">Interaction Analysis (PLIP)</text><rect x="841" y="823" width="241" height="72" stroke="#9370DB" stroke-width="2" stroke-miterlimit="8" fill="#ECECFF"/><text fill="#333333" font-family="Trebuchet MS,Trebuchet MS_MSFontService,sans-serif" font-weight="400" font-size="19" transform="translate(859.086 866)">Docking (AutoDock Vina)</text><rect x="850" y="536" width="222" height="72" stroke="#9370DB" stroke-width="2" stroke-miterlimit="8" fill="#ECECFF"/><text fill="#333333" font-family="Trebuchet MS,Trebuchet MS_MSFontService,sans-serif" font-weight="400" font-size="19" transform="translate(892.333 579)">aLMMD</text><text fill="#333333" font-family="Trebuchet MS,Trebuchet MS_MSFontService,sans-serif" font-weight="400" font-size="19" transform="translate(955.166 579)">Sampling</text><rect x="886" y="679" width="151" height="73" stroke="#9370DB" stroke-width="2" stroke-miterlimit="8" fill="#ECECFF"/><text fill="#333333" font-family="Trebuchet MS,Trebuchet MS_MSFontService,sans-serif" font-weight="400" font-size="19" transform="translate(916.333 722)">Snapshot 3</text><rect x="162" y="679" width="222" height="73" stroke="#9370DB" stroke-width="2" stroke-miterlimit="8" fill="#ECECFF"/><text fill="#333333" font-family="Trebuchet MS,Trebuchet MS_MSFontService,sans-serif" font-weight="400" font-size="19" transform="translate(212.743 722)">RDKit Filtering</text><rect x="668" y="679" width="151" height="73" stroke="#9370DB" stroke-width="2" stroke-miterlimit="8" fill="#ECECFF"/><text fill="#333333" font-family="Trebuchet MS,Trebuchet MS_MSFontService,sans-serif" font-weight="400" font-size="19" transform="translate(698.858 722)">Snapshot</text><text fill="#333333" font-family="Trebuchet MS,Trebuchet MS_MSFontService,sans-serif" font-weight="400" font-size="19" transform="translate(778.858 722)">2</text><rect x="451" y="679" width="151" height="73" stroke="#9370DB" stroke-width="2" stroke-miterlimit="8" fill="#ECECFF"/><text fill="#333333" font-family="Trebuchet MS,Trebuchet MS_MSFontService,sans-serif" font-weight="400" font-size="19" transform="translate(481.383 722)">Snapshot</text><text fill="#333333" font-family="Trebuchet MS,Trebuchet MS_MSFontService,sans-serif" font-weight="400" font-size="19" transform="translate(561.383 722)">1</text><rect x="1103" y="681" width="151" height="72" stroke="#9370DB" stroke-width="2" stroke-miterlimit="8" fill="#ECECFF"/><text fill="#333333" font-family="Trebuchet MS,Trebuchet MS_MSFontService,sans-serif" font-weight="400" font-size="19" transform="translate(1133.81 724)">Snapshot</text><text fill="#333333" font-family="Trebuchet MS,Trebuchet MS_MSFontService,sans-serif" font-weight="400" font-size="19" transform="translate(1213.81 724)">4</text><rect x="1321" y="681" width="151" height="72" stroke="#9370DB" stroke-width="2" stroke-miterlimit="8" fill="#ECECFF"/><text fill="#333333" font-family="Trebuchet MS,Trebuchet MS_MSFontService,sans-serif" font-weight="400" font-size="19" transform="translate(1351.28 724)">Snapshot</text><text fill="#333333" font-family="Trebuchet MS,Trebuchet MS_MSFontService,sans-serif" font-weight="400" font-size="19" transform="translate(1431.28 724)">5</text><rect x="162" y="536" width="222" height="72" stroke="#9370DB" stroke-width="2" stroke-miterlimit="8" fill="#ECECFF"/><text fill="#333333" font-family="Trebuchet MS,Trebuchet MS_MSFontService,sans-serif" font-weight="400" font-size="19" transform="translate(175.867 579)">Fragment Library (.</text><text fill="#333333" font-family="Trebuchet MS,Trebuchet MS_MSFontService,sans-serif" font-weight="400" font-size="19" transform="translate(339.2 579)">sdf</text><text fill="#333333" font-family="Trebuchet MS,Trebuchet MS_MSFontService,sans-serif" font-weight="400" font-size="19" transform="translate(363.867 579)">)</text><rect x="1210" y="536" width="222" height="72" stroke="#9370DB" stroke-width="2" stroke-miterlimit="8" fill="#ECECFF"/><text fill="#333333" font-family="Trebuchet MS,Trebuchet MS_MSFontService,sans-serif" font-weight="400" font-size="19" transform="translate(1256.75 579)">aLMMD</text><text fill="#333333" font-family="Trebuchet MS,Trebuchet MS_MSFontService,sans-serif" font-weight="400" font-size="19" transform="translate(1318.56 579)">Analysis</text><path d="M0.666667-2.95741e-06 0.666952 64.3326-0.666381 64.3326-0.666667 2.95741e-06ZM4.00028 62.9992 0.000314961 70.9993-3.99972 62.9993Z" transform="matrix(-1 0 0 1 961.5 465.5)"/><path d="M1072.5 571.833 1203.07 571.833 1203.07 573.167 1072.5 573.167ZM1201.74 568.5 1209.74 572.5 1201.74 576.5Z"/><path d="M962.167 895.5 962.167 960.136 960.833 960.136 960.833 895.5ZM965.5 958.803 961.5 966.803 957.5 958.803Z"/><path d="M0.666667-1.98008e-06 0.666857 64.0288-0.666476 64.0288-0.666667 1.98008e-06ZM4.00019 62.6954 0.000209974 70.6954-3.99981 62.6954Z" transform="matrix(-1 0 0 1 961.5 1039.5)"/><path d="M0.0546623-0.664422 2.62049-0.45333 5.23082 0.186744 7.82486 1.23971 10.4002 2.69381 12.9567 4.53851 15.4955 6.76483 18.0175 9.36501 20.5293 12.3388 25.4895 19.3398 30.3934 27.7414 35.2301 37.4852 39.993 48.5215 44.6739 60.7998 49.2642 74.2694 53.7547 88.8792 58.1361 104.578 62.3989 121.314 66.5333 139.036 70.5299 157.692 74.3788 177.23 78.0704 197.599 81.5947 218.747 84.9422 240.622 88.103 263.171 91.0673 286.344 93.8253 310.089 96.3672 334.352 98.6832 359.084 100.763 384.23 102.598 409.743 105.492 461.645 107.286 514.381 107.824 560.859 106.491 560.875 105.953 514.404 105.953 514.419 104.16 461.698 104.16 461.712 101.267 409.822 101.268 409.833 99.4338 384.33 99.4344 384.337 97.3547 359.197 97.3553 359.204 95.04 334.48 95.0407 334.488 92.4996 310.231 92.5004 310.239 89.7433 286.502 89.7442 286.51 86.781 263.345 86.782 263.353 83.6224 240.811 83.6236 240.819 80.2774 218.953 80.2788 218.962 76.7559 197.823 76.7576 197.832 73.0678 177.473 73.0696 177.483 69.2228 157.955 69.225 157.966 65.2309 139.321 65.2335 139.333 61.1019 121.623 61.1051 121.637 56.8459 104.914 56.8498 104.929 52.4728 89.246 52.4777 89.2626 47.9927 74.6707 47.9989 74.6899 43.4157 61.2411 43.4238 61.2636 38.7523 49.0099 38.7631 49.0365 34.013 38.0299 34.0279 38.0621 29.2091 28.3544 29.2305 28.394 24.3528 20.0373 24.3846 20.0866 19.4578 13.1327 19.4925 13.1775 17.0137 10.2429 17.0445 10.2769 14.5571 7.71247 14.5961 7.74955 12.1014 5.56185 12.1509 5.60123 9.65006 3.79673 9.71237 3.83663 7.20663 2.42183 7.28366 2.45902 4.77424 1.4404 4.86621 1.47017 2.35434 0.854239 2.45844 0.871176-0.0546623 0.664422ZM111.142 559.487 107.235 567.533 103.142 559.58Z" transform="matrix(1.83697e-16 1 1 -1.83697e-16 273.5 752.5)"/><path d="M274.167 608.5 274.167 672.833 272.833 672.833 272.833 608.5ZM277.5 671.499 273.5 679.499 269.5 671.499Z"/><path d="M0.0602393-0.663939 5.14254-0.202822 10.263 1.17406 15.3464 3.42536 20.3827 6.51591 25.3645 10.4126 30.2849 15.0843 35.1371 20.5013 39.9133 26.6347 44.6057 33.4558 49.2057 40.9362 53.7045 49.0474 58.0928 57.7612 62.3615 67.049 66.5011 76.8822 70.5021 87.2325 74.3548 98.0711 78.0497 109.37 81.5771 121.099 84.9272 133.231 88.0911 145.74 93.8166 171.756 98.6776 198.925 102.595 227.016 105.491 255.798 107.286 285.042 107.762 307.837 106.429 307.865 105.953 285.083 105.954 285.11 104.161 255.893 104.163 255.919 101.27 227.162 101.273 227.187 97.3588 199.122 97.3628 199.147 92.5064 172.003 92.5116 172.029 86.7912 146.037 86.796 146.057 83.6363 133.565 83.64 133.579 80.2939 121.461 80.298 121.476 76.7752 109.761 76.78 109.776 73.0902 98.4936 73.0956 98.5097 69.2488 87.6876 69.2551 87.7047 65.261 77.3722 65.2684 77.3905 61.1368 67.5762 61.1455 67.596 56.8863 58.3288 56.8966 58.3503 52.5196 49.659 52.532 49.6825 48.047 41.596 48.0621 41.6218 43.4789 34.1688 43.4976 34.1974 38.826 27.4066 38.8493 27.4384 34.0992 21.3387 34.1286 21.3739 29.3098 15.994 29.3473 16.0327 24.4696 11.4015 24.5179 11.4432 19.5911 7.58945 19.6531 7.63255 14.687 4.58509 14.7658 4.62644 9.77022 2.41404 9.86706 2.44828 4.85188 1.09972 4.96476 1.11986-0.0602393 0.663939ZM111.067 306.435 107.235 314.517 103.068 306.602Z" transform="matrix(1.83697e-16 1 1 -1.83697e-16 526.5 752.5)"/><path d="M0.0369121-0.665644 10.1124-0.106926 20.1417 1.52699 30.0084 4.16154 39.6344 7.72459 48.9416 12.1443 57.8522 17.3494 66.2881 23.2685 74.1715 29.8309 81.4242 36.9659 87.9678 44.6032 93.7236 52.6726 98.6127 61.1039 102.556 69.8272 105.472 78.7722 107.282 87.8679 107.449 90.3452 106.119 90.4353 105.954 88.0009 105.965 88.0859 104.172 79.0712 104.192 79.1478 101.299 70.2752 101.326 70.3431 97.4116 61.6838 97.4424 61.7436 92.5859 53.3686 92.6199 53.4213 86.8995 45.4016 86.936 45.4482 80.4302 37.855 80.4689 37.8965 73.2562 30.8008 73.2972 30.8379 65.4562 24.3108 65.4998 24.3442 57.109 18.4567 57.1557 18.4867 48.2937 13.31 48.3439 13.3366 39.0892 8.94173 39.1438 8.96473 29.5749 5.4228 29.6343 5.44169 19.8298 2.82375 19.8946 2.83764 9.93295 1.21475 10.0032 1.2224-0.0369121 0.665644ZM110.685 88.7897 107.235 97.0417 102.703 89.3302Z" transform="matrix(1.83697e-16 1 1 -1.83697e-16 744.5 752.5)"/><path d="M1180.21 753.538 1179.65 763.464 1178.01 773.346 1175.38 783.067 1171.82 792.551 1167.4 801.721 1162.19 810.5 1156.27 818.811 1149.71 826.577 1142.57 833.722 1134.93 840.168 1126.87 845.839 1118.43 850.655 1109.71 854.539 1100.77 857.411 1091.67 859.194 1089.2 859.359 1089.11 858.029 1091.54 857.866 1091.46 857.877 1100.47 856.11 1100.4 856.13 1109.27 853.28 1109.2 853.306 1117.86 849.45 1117.8 849.48 1126.18 844.696 1126.12 844.73 1134.14 839.094 1134.1 839.13 1141.69 832.722 1141.65 832.76 1148.74 825.655 1148.71 825.695 1155.23 817.971 1155.2 818.015 1161.09 809.749 1161.06 809.796 1166.23 801.066 1166.21 801.116 1170.6 791.999 1170.58 792.054 1174.12 782.628 1174.1 782.688 1176.72 773.029 1176.7 773.095 1178.33 763.282 1178.32 763.353 1178.88 753.463ZM1090.75 862.596 1082.5 859.137 1090.22 854.614Z"/><path d="M1397.68 753.561 1397.22 758.569 1395.84 763.617 1393.59 768.626 1390.5 773.589 1386.6 778.497 1381.93 783.344 1376.51 788.125 1370.38 792.83 1363.56 797.452 1356.08 801.984 1347.97 806.415 1339.25 810.738 1329.96 814.943 1320.13 819.021 1309.78 822.962 1298.94 826.758 1287.64 830.398 1275.91 833.872 1263.78 837.173 1251.27 840.289 1225.26 845.929 1198.09 850.718 1170 854.577 1141.22 857.429 1111.97 859.198 1089.18 859.667 1089.15 858.334 1111.93 857.865 1111.91 857.866 1141.12 856.099 1141.1 856.101 1169.86 853.251 1169.83 853.254 1197.9 849.399 1197.87 849.403 1225.01 844.619 1224.99 844.624 1250.98 838.988 1250.96 838.993 1263.45 835.88 1263.44 835.884 1275.56 832.588 1275.54 832.592 1287.26 829.121 1287.24 829.126 1298.53 825.491 1298.51 825.497 1309.33 821.707 1309.31 821.713 1319.65 817.779 1319.63 817.786 1329.44 813.716 1329.42 813.724 1338.69 809.529 1338.67 809.539 1347.36 805.227 1347.34 805.239 1355.42 800.821 1355.4 800.836 1362.85 796.321 1362.82 796.339 1369.61 791.737 1369.58 791.76 1375.68 787.081 1375.65 787.11 1381.03 782.363 1380.99 782.4 1385.62 777.595 1385.58 777.643 1389.43 772.789 1389.39 772.851 1392.43 767.959 1392.39 768.038 1394.6 763.117 1394.57 763.215 1395.92 758.275 1395.9 758.389 1396.35 753.439ZM1090.58 862.972 1082.5 859.137 1090.42 854.974Z"/><path d="M0.121491-0.655503 1.92788-0.320709 3.7879 0.700978 5.57688 2.31944 7.31538 4.49872 9.01799 7.2192 10.6914 10.4647 12.3375 14.2188 13.9559 18.464 15.5448 23.1823 17.1019 28.3548 18.6245 33.9626 20.1096 39.9864 21.5541 46.4068 22.9554 53.2066 25.6126 67.8508 28.0566 83.7693 30.2607 100.801 32.1985 118.787 33.8435 137.569 35.1692 156.988 36.1491 176.884 36.7565 197.1 36.9648 217.468 37.1731 237.83 37.1728 237.817 37.7799 258.019 37.7794 258.006 38.7586 277.89 38.7579 277.877 40.0827 297.283 40.0817 297.271 41.7256 316.04 41.7243 316.026 43.6606 333.999 43.6589 333.985 45.8611 351.001 45.8589 350.986 48.3004 366.888 48.2974 366.87 50.9515 381.497 50.9485 381.482 52.347 388.268 52.3445 388.256 53.7862 394.664 53.7831 394.651 55.2646 400.66 55.2607 400.645 56.7789 406.237 56.7739 406.219 58.3253 411.373 58.3187 411.352 59.9 416.048 59.8911 416.023 61.499 420.241 61.4866 420.21 63.1177 423.93 63.0997 423.893 64.7508 427.095 64.7234 427.047 66.3911 429.711 66.2417 429.544 67.5585 430.594 66.7271 431.637 65.3213 430.515 63.5784 427.73 61.9051 424.485 60.2589 420.731 58.6406 416.486 57.0516 411.767 55.4945 406.595 53.9719 400.987 52.4869 394.963 51.0423 388.543 49.641 381.743 46.9838 367.099 44.5398 351.18 42.3357 334.149 40.3979 316.163 38.7529 297.381 37.4272 277.962 36.4473 258.065 35.8399 237.85 35.6316 217.482 35.4233 197.12 35.4236 197.133 34.8166 176.931 34.8171 176.943 33.8378 157.06 33.8386 157.072 32.5137 137.666 32.5147 137.679 30.8708 118.91 30.8721 118.923 28.9358 100.951 28.9375 100.965 26.7353 83.9482 26.7375 83.9638 24.2961 68.0621 24.2991 68.0799 21.6449 53.4524 21.6479 53.4679 20.2494 46.6818 20.252 46.6936 18.8103 40.2857 18.8134 40.299 17.3318 34.2894 17.3357 34.3045 15.8175 28.7129 15.8226 28.7304 14.2712 23.577 14.2777 23.5976 12.6964 18.902 12.7053 18.9267 11.0974 14.709 11.1098 14.7393 9.47869 11.0193 9.4967 11.0571 7.84562 7.85488 7.87304 7.90305 6.20535 5.23837 6.24931 5.30043 4.56833 3.19325 4.64223 3.27188 2.95127 1.7421 3.07757 1.83204 1.37997 0.899568 1.57943 0.970751-0.121491 0.655503ZM68.3527 427.076 72.5964 434.95 63.7515 433.621Z" transform="matrix(1.83697e-16 1 1 -1.83697e-16 961.5 608.5)"/><path d="M962.105 608.624 961.769 610.395 960.745 612.219 959.125 613.97 956.945 615.671 954.225 617.336 950.98 618.972 947.226 620.582 942.981 622.164 938.263 623.718 933.091 625.241 927.484 626.73 921.46 628.182 915.04 629.595 908.241 630.965 893.597 633.564 877.678 635.954 860.647 638.11 842.661 640.005 823.88 641.614 804.461 642.91 784.565 643.869 764.35 644.463 743.982 644.666 723.62 644.87 723.633 644.87 703.43 645.463 703.443 645.463 683.559 646.421 683.571 646.42 664.165 647.716 664.178 647.715 645.409 649.322 645.422 649.321 627.449 651.215 627.463 651.213 610.446 653.367 610.462 653.365 594.56 655.753 594.577 655.75 579.95 658.346 579.965 658.343 573.179 659.71 573.191 659.708 566.783 661.118 566.796 661.115 560.786 662.564 560.801 662.56 555.209 664.045 555.227 664.04 550.073 665.557 550.093 665.551 545.398 667.098 545.422 667.089 541.204 668.662 541.234 668.65 537.514 670.245 537.552 670.227 534.35 671.842 534.397 671.815 531.733 673.446 531.907 673.292 530.937 674.517 529.892 673.689 530.936 672.371 533.725 670.664 536.97 669.028 540.724 667.418 544.969 665.835 549.686 664.281 554.859 662.759 560.466 661.27 566.49 659.817 572.91 658.405 579.709 657.034 594.353 654.435 610.271 652.045 627.303 649.89 645.289 647.995 664.07 646.386 683.489 645.089 703.385 644.131 723.6 643.537 743.968 643.333 764.33 643.129 764.317 643.13 784.52 642.536 784.507 642.536 804.391 641.579 804.379 641.579 823.785 640.284 823.772 640.285 842.541 638.677 842.528 638.678 860.5 636.785 860.487 636.786 877.503 634.632 877.488 634.635 893.39 632.247 893.372 632.25 908 629.654 907.985 629.657 914.771 628.289 914.759 628.292 921.167 626.882 921.154 626.885 927.164 625.436 927.149 625.439 932.74 623.955 932.723 623.959 937.877 622.442 937.856 622.448 942.552 620.902 942.528 620.911 946.745 619.338 946.715 619.35 950.435 617.755 950.398 617.772 953.6 616.157 953.552 616.184 956.217 614.553 956.155 614.596 958.262 612.952 958.183 613.025 959.713 611.371 959.621 611.497 960.553 609.837 960.479 610.039 960.795 608.376ZM534.435 675.373 526.5 679.499 527.96 670.675Z"/><path d="M0.120367-0.65571 3.62237-0.0128552 7.15447 1.892 10.5714 4.91225 13.8696 8.95359 17.0394 13.9364 20.0637 19.7844 22.9209 26.421 25.5874 33.7688 28.0381 41.7499 30.2475 50.2859 32.1894 59.2982 33.8388 68.714 36.1473 88.3965 36.7562 98.5297 36.9647 108.724 37.173 118.905 37.1719 118.878 37.779 128.98 37.7756 128.942 40.0797 148.587 40.0743 148.549 41.7181 157.934 41.7132 157.908 43.6495 166.895 43.6432 166.868 45.8454 175.376 45.8373 175.348 48.2787 183.299 48.2681 183.267 50.9222 190.581 50.9079 190.545 53.7481 197.142 53.7279 197.099 56.7277 202.899 56.698 202.848 59.8307 207.772 59.7847 207.709 63.0237 211.678 62.9013 211.561 66.8137 214.429 66.0254 215.505 62.0445 212.586 58.7268 208.521 55.557 203.538 52.5328 197.69 49.6755 191.054 47.009 183.706 44.5583 175.725 42.349 167.189 40.407 158.177 38.7577 148.761 36.4492 129.078 35.8402 118.945 35.6317 108.751 35.4234 98.5702 35.4245 98.5966 34.8175 88.4953 34.8208 88.533 32.5167 68.8881 32.5222 68.9254 30.8783 59.541 30.8833 59.5664 28.9469 50.5802 28.9532 50.6068 26.7511 42.0984 26.7592 42.127 24.3177 34.1761 24.3283 34.2079 21.6742 26.8941 21.6886 26.9303 18.8483 20.3333 18.8685 20.3759 15.8688 14.5754 15.8984 14.627 12.7658 9.70245 12.8118 9.76614 9.57274 5.79733 9.64772 5.87532 6.32895 2.94185 6.45402 3.02912 3.08208 1.21064 3.27816 1.27957-0.120367 0.65571ZM66.689 210.759 72.5964 217.475 63.6793 218.171Z" transform="matrix(1.83697e-16 1 1 -1.83697e-16 961.5 608.5)"/><path d="M962.63 608.623 961.987 612.052 960.079 615.511 957.057 618.855 953.016 622.081 948.033 625.18 942.185 628.138 935.549 630.932 928.202 633.54 920.221 635.937 911.686 638.097 902.674 639.996 893.259 641.609 873.577 643.867 863.445 644.462 853.251 644.666 843.07 644.87 843.096 644.869 832.995 645.463 833.031 645.459 813.386 647.713 813.423 647.708 804.039 649.315 804.063 649.311 795.077 651.204 795.103 651.198 786.595 653.352 786.623 653.344 778.672 655.732 778.703 655.722 771.39 658.317 771.425 658.304 764.828 661.081 764.871 661.062 759.07 663.995 759.121 663.967 754.197 667.03 754.261 666.985 750.292 670.153 750.41 670.031 747.632 673.758 746.563 672.961 749.393 669.165 753.459 665.919 758.442 662.819 764.29 659.861 770.926 657.067 778.273 654.46 786.254 652.063 794.789 649.902 803.801 648.003 813.216 646.39 832.898 644.133 843.03 643.537 853.224 643.333 863.405 643.13 863.379 643.131 873.48 642.537 873.444 642.54 893.089 640.287 893.052 640.292 902.436 638.684 902.411 638.689 911.398 636.795 911.372 636.801 919.88 634.648 919.852 634.655 927.803 632.268 927.771 632.278 935.085 629.682 935.049 629.696 941.646 626.918 941.604 626.938 947.405 624.004 947.354 624.033 952.278 620.969 952.214 621.014 956.183 617.846 956.104 617.92 959.038 614.675 958.949 614.8 960.767 611.502 960.696 611.701 961.32 608.377ZM751.301 673.69 744.5 679.499 743.933 670.573Z"/><path d="M962.167 608.5 962.167 672.833 960.833 672.833 960.833 608.5ZM965.5 671.499 961.5 679.499 957.5 671.499Z"/><path d="M962.167 752.5 962.167 816.833 960.833 816.833 960.833 752.5ZM965.5 815.499 961.5 823.499 957.5 815.499Z"/><path d="M962.167 1182.5 962.167 1246.53 960.834 1246.53 960.833 1182.5ZM965.5 1245.2 961.5 1253.2 957.5 1245.2Z"/></g></svg>